<?xml version="1.0" encoding="UTF-8" standalone="no"?>
<!-- Created with Inkscape (http://www.inkscape.org/) -->

<svg
   width="210mm"
   height="297mm"
   viewBox="0 0 210 297"
   version="1.1"
   id="svg1"
   inkscape:version="1.3 (0e150ed6c4, 2023-07-21)"
   sodipodi:docname="logo-a-small-inverted.svg"
   xmlns:inkscape="http://www.inkscape.org/namespaces/inkscape"
   xmlns:sodipodi="http://sodipodi.sourceforge.net/DTD/sodipodi-0.dtd"
   xmlns="http://www.w3.org/2000/svg"
   xmlns:svg="http://www.w3.org/2000/svg">
  <sodipodi:namedview
     id="namedview1"
     pagecolor="#ffffff"
     bordercolor="#666666"
     borderopacity="1.0"
     inkscape:showpageshadow="2"
     inkscape:pageopacity="0.0"
     inkscape:pagecheckerboard="0"
     inkscape:deskcolor="#d1d1d1"
     inkscape:document-units="mm"
     inkscape:zoom="5.210766"
     inkscape:cx="217.24253"
     inkscape:cy="236.33761"
     inkscape:window-width="1808"
     inkscape:window-height="1239"
     inkscape:window-x="0"
     inkscape:window-y="0"
     inkscape:window-maximized="0"
     inkscape:current-layer="layer1" />
  <defs
     id="defs1" />
  <g
     inkscape:groupmode="layer"
     id="layer2"
     inkscape:label="Layer 2">
    <rect
       style="font-variation-settings:'wght' 600;fill:#000000;stroke:none;stroke-width:0.828726;stroke-linejoin:round;stroke-dasharray:none;fill-opacity:1"
       id="rect1"
       width="27.391327"
       height="25.683121"
       x="42.444069"
       y="49.081844"
       inkscape:export-filename="logo-a-small-bold-export3.svg"
       inkscape:export-xdpi="166.91417"
       inkscape:export-ydpi="166.91417" />
  </g>
  <g
     inkscape:label="Layer 1"
     inkscape:groupmode="layer"
     id="layer1">
    <path
       style="font-size:25.4px;line-height:1.25;font-family:'EB Garamond';-inkscape-font-specification:'EB Garamond, @wght=600';font-variation-settings:'wght' 600;stroke-width:0.255042;fill:#ffffff"
       d="m 48.082047,70.460418 c -0.195873,0 -0.359099,-0.03265 -0.489682,-0.09794 -0.130581,-0.04897 -0.195872,-0.138743 -0.195872,-0.269325 0,-0.146904 0.05713,-0.261163 0.171388,-0.342777 0.130583,-0.08162 0.293809,-0.155066 0.489681,-0.220356 0.473359,-0.130583 0.881427,-0.326455 1.224204,-0.587618 0.359099,-0.277486 0.644747,-0.652908 0.856942,-1.126266 0.408067,-0.963041 0.799813,-1.885273 1.175235,-2.7667 0.375422,-0.897748 0.734522,-1.787336 1.077299,-2.668763 0.342777,-0.881426 0.685554,-1.779175 1.02833,-2.693247 0.3591,-0.914071 0.7182,-1.877111 1.077299,-2.889119 0.17955,-0.506004 0.301971,-0.897747 0.367261,-1.175234 0.06529,-0.277486 0.122421,-0.481519 0.171389,-0.612101 0.244841,-0.06529 0.473359,-0.130582 0.685554,-0.195873 0.212194,-0.06529 0.448874,-0.146904 0.710037,-0.244841 0.228518,-0.114258 0.424391,-0.261163 0.587618,-0.440713 0.163227,-0.17955 0.285646,-0.318293 0.367261,-0.416229 0.04897,-0.03265 0.09794,-0.04897 0.146904,-0.04897 0.04897,-0.01632 0.09794,0.01632 0.146905,0.09794 0.04897,0.09793 0.08977,0.195872 0.122419,0.293808 0.03265,0.09794 0.06529,0.204035 0.09794,0.318293 0.359099,1.158912 0.72636,2.334147 1.101782,3.525704 0.391746,1.175235 0.775329,2.342308 1.150752,3.501221 0.375422,1.142589 0.734522,2.244372 1.077298,3.305349 0.3591,1.044652 0.685554,2.007692 0.979363,2.889119 0.146905,0.440713 0.326455,0.791651 0.538649,1.052814 0.228519,0.261163 0.473359,0.465197 0.734522,0.612102 0.277487,0.130582 0.579457,0.236679 0.90591,0.318293 0.212195,0.04897 0.375424,0.114258 0.489682,0.195873 0.114259,0.08162 0.171388,0.195872 0.171388,0.342776 0,0.09794 -0.05713,0.171389 -0.171388,0.220356 -0.09794,0.04897 -0.228519,0.07345 -0.391745,0.07345 -0.293809,0 -0.669231,-0.0082 -1.126267,-0.02448 -0.440713,-0.01632 -0.897749,-0.03265 -1.371108,-0.04897 -0.473358,-0.03265 -0.897748,-0.04897 -1.273171,-0.04897 -0.326454,0 -0.693715,0.0082 -1.101783,0.02448 -0.391745,0.01632 -0.791651,0.03265 -1.199719,0.04897 -0.391745,0.01632 -0.72636,0.02448 -1.003846,0.02448 -0.163227,0 -0.310132,-0.02448 -0.440713,-0.07345 -0.114259,-0.06529 -0.171389,-0.155065 -0.171389,-0.269324 0,-0.130582 0.06529,-0.236679 0.195873,-0.318293 0.130582,-0.09794 0.285646,-0.163226 0.465197,-0.195872 0.587617,-0.09794 1.012009,-0.244841 1.273171,-0.440713 0.261163,-0.212196 0.359099,-0.514165 0.293809,-0.905911 -0.04897,-0.277486 -0.12242,-0.603939 -0.220357,-0.979363 -0.09794,-0.391744 -0.204034,-0.79165 -0.318293,-1.199719 -0.09794,-0.42439 -0.204034,-0.807973 -0.318292,-1.15075 -0.03265,-0.130582 -0.08162,-0.220357 -0.146905,-0.269325 -0.06529,-0.06529 -0.187711,-0.09794 -0.367261,-0.09794 h -4.407131 c -0.114258,0 -0.204034,0.0408 -0.269325,0.122421 -0.06529,0.06529 -0.114258,0.171388 -0.146904,0.318293 -0.06529,0.212195 -0.146905,0.457036 -0.24484,0.734522 -0.08162,0.261163 -0.17139,0.538649 -0.269325,0.832458 -0.08162,0.277486 -0.163227,0.538649 -0.244841,0.78349 -0.06529,0.244841 -0.114259,0.457035 -0.146904,0.636585 -0.08162,0.440714 -0.0082,0.791652 0.220357,1.052815 0.24484,0.244841 0.661069,0.440713 1.248686,0.587618 0.440714,0.114258 0.66107,0.285646 0.66107,0.514165 0,0.09794 -0.05713,0.17955 -0.171389,0.24484 -0.09793,0.04897 -0.24484,0.07345 -0.440713,0.07345 -0.375422,0 -0.767167,-0.01632 -1.175235,-0.04897 -0.408067,-0.01632 -0.856941,-0.02448 -1.346623,-0.02448 -0.489681,0 -0.9712,0.02448 -1.444559,0.07345 -0.457037,0.04897 -0.922234,0.07345 -1.395592,0.07345 z m 5.827206,-7.100378 h 3.403285 c 0.228518,0 0.342777,-0.04897 0.342777,-0.146904 0,-0.04897 -0.0082,-0.08977 -0.02448,-0.122421 0,-0.03265 -0.0082,-0.08162 -0.02448,-0.146904 l -1.713884,-5.655819 c -0.06529,-0.228518 -0.12242,-0.342776 -0.171388,-0.342776 -0.03265,0 -0.08977,0.106097 -0.171389,0.318292 l -2.056661,5.680303 c -0.03265,0.08162 -0.04897,0.146904 -0.04897,0.195872 0,0.08162 0.0408,0.138743 0.122421,0.171389 0.09794,0.03265 0.212195,0.04897 0.342776,0.04897 z"
       id="text2"
       aria-label="(A)"
       inkscape:export-filename="logo-a-small-bold-export3.png"
       inkscape:export-xdpi="197.41414"
       inkscape:export-ydpi="197.41414"
       sodipodi:nodetypes="scscccccscsscscscccsccccscccsscsccsccscsccccccccssccccccccscscscsssscccsccscs" />
  </g>
</svg>
